<svg width="669" height="776" viewBox="0 0 669 776" fill="none" xmlns="http://www.w3.org/2000/svg">
<path d="M0.137818 245.616C0.0607734 244.637 -0.0162716 242.896 0.00299508 241.116L0.0415174 237.496V42.3888L0.0607735 38.4366C0.0704015 31.5495 4.03819 27.5385 10.1151 26.3156C10.2306 26.2961 121.492 6.65228 334.154 0C546.816 6.65228 658.116 26.2961 658.231 26.3156C664.318 27.5385 668.286 31.5592 668.286 38.4756L668.305 42.3888V237.496L668.344 241.116C668.363 242.896 668.287 244.637 668.209 245.616L668.295 244.775C663.345 473.251 580.792 606.052 498.74 681.664C457.83 719.376 417.228 742.689 386.843 756.59C371.597 763.565 358.943 768.173 350.121 771.038C345.643 772.487 342.148 773.494 339.779 774.139C339.779 774.139 336.87 774.904 335.242 775.333C334.54 775.509 333.808 775.509 333.104 775.333C331.477 774.904 328.568 774.139 328.568 774.139C326.199 773.494 322.703 772.487 318.235 771.038C309.403 768.173 296.739 763.565 281.504 756.59C251.12 742.689 210.517 719.376 169.607 681.664C87.5544 606.052 4.99162 473.251 0.0415174 244.775L0.137818 245.616Z" fill="white"/>
<path fill-rule="evenodd" clip-rule="evenodd" d="M334.163 766.816C334.871 766.506 650.163 696.03 659.94 244.593C660.056 244.014 659.94 238.488 659.94 237.499V42.4014C659.94 41.4129 659.917 38.478 659.917 38.478C659.917 36.0433 659.201 35.1817 656.612 34.6628C656.497 34.6346 545.922 15.1286 334.154 8.49585C122.378 15.1286 11.8481 34.6346 11.7325 34.6628C9.14148 35.1817 8.42025 36.0433 8.42025 38.478C8.42025 38.478 8.39952 41.4129 8.39952 42.4014V237.499C8.39952 238.488 8.28392 244.014 8.39952 244.593C18.1926 696.03 333.466 766.506 334.163 766.816ZM18.2134 48.8086C18.2134 46.3833 18.9346 45.5123 21.5163 44.9934C21.6319 44.9746 122.378 25.586 334.154 18.9627C545.922 25.586 646.696 44.9746 646.812 44.9934C649.401 45.5123 650.14 46.3833 650.14 48.8086V235.377C650.14 235.417 649.563 241.54 650.14 241.639C640.271 670.887 348.53 754.177 334.154 758.011C319.775 754.177 28.0851 670.887 18.2134 241.639C18.7728 241.54 18.2134 235.417 18.2134 235.377V48.8086ZM334.154 749.343C322.828 745.488 35.7033 659.957 28.0851 232.275C28.0088 231.911 28.0851 227.892 28.0851 227.274C28.0851 226.649 28.1244 143.467 28.1244 142.841V140.376C28.1244 138.858 28.5775 138.312 30.2046 137.979C30.281 137.969 142.353 118.55 334.154 116.409C525.953 118.55 638.075 137.969 638.144 137.979C639.762 138.312 640.224 138.858 640.224 140.376V142.841C640.224 143.467 640.271 226.649 640.271 227.274C640.271 227.892 640.34 231.911 640.271 232.275C632.644 659.957 345.479 745.488 334.154 749.343ZM146.15 258.231C144.53 233.843 145.177 227.564 145.186 200.983C145.108 200.622 145.061 144.859 145.128 141.681C115.87 144.124 89.7329 146.698 71.4341 148.901C71.3671 152.079 71.3578 209.083 71.4341 209.444C50.4703 604.748 322.792 733.734 334.119 737.587C327.484 735.328 260.598 673.422 208.824 553.465C185.23 542.167 171.806 531.327 152.641 512.32C123.509 483.372 101.657 445.485 99.1516 385.544C97.2932 340.847 114.917 297.617 146.15 258.231ZM507.647 358.891C510.304 356.66 517.77 348.776 519.597 346.79C536.978 327.909 540.121 307.63 542.317 283.065C543.033 275.042 540.052 256.123 539.821 250.938L522.902 241.429C523.826 222.607 523.041 220.651 523.041 200.577C523.11 200.216 523.156 144.454 523.086 141.273C552.348 143.709 578.489 146.292 596.795 148.492C596.864 151.674 596.864 208.667 596.795 209.039C617.042 604.752 345.44 733.688 334.114 737.543C340.787 735.262 408.645 678.905 461.213 547.913C475.034 543.344 483.841 539.374 492.323 533.894C505.29 525.521 519.25 516.813 530.552 502.287C541.068 488.768 547.125 473.692 549.181 456.865C550.592 445.184 550.961 433.142 547.402 421.372C544.096 410.504 539.752 398.09 531.893 388.425C524.566 379.425 513.818 372.067 506.329 367.244C502.862 365.005 501.475 364.331 501.314 363.908C501.152 363.538 504.619 361.356 507.647 358.891ZM363.76 520.37C354.34 667.581 340.219 733.425 334.114 737.543C340.173 734.454 384.926 681.563 415.494 562.251L409.688 564.287L363.76 520.37ZM303.892 504.632C289.899 524.481 271.648 538.049 250.952 552.372C282.475 679.322 327.826 734.293 334.112 737.5C327.796 733.246 313.282 662.838 303.892 504.632ZM327.874 464.469L368.697 424.155L455.815 503.014C464.078 494.541 471.035 483.244 470.48 455.069C469.972 428.84 464.078 413.159 450.98 396.938C439.031 382.118 429.919 377.911 411.678 376.288C406.44 375.819 401.365 375.445 390.973 375.309V351.859C405.486 350.95 407.134 350.039 413.527 348.818C419.913 347.42 426.905 344.151 432.249 339.896C451.242 324.753 459.964 310.147 463.293 274.469C464.68 259.628 462.414 254.091 453.042 253.915C449.845 253.867 447.206 256.878 443.036 259.325C438.845 261.76 434.137 266.085 424.305 273.617L381.016 306.829L347.329 267.033L421.069 209.492L526.97 262.202C527.178 267.23 527.294 271.006 527.247 273.52C526.784 300.851 518.88 326.455 502.03 344.769C493.825 353.679 487.423 358.816 475.866 364.225C491.514 370.173 498.702 374.772 511.021 385.856C518.742 392.802 525.444 404.373 529.743 414.519C534.181 424.655 535.822 435.816 535.637 445.873C535.382 461.81 529.234 477.97 518.973 491.029C508.872 504.099 495.744 515.329 476.652 524.38C463.963 530.522 442.65 537.684 412.728 545.863L327.874 464.469ZM230.528 545.1C203.783 534.603 179.958 516.573 158.73 495.52C130.495 467.454 115.98 432.186 115.22 389.709C113.989 321.525 151.344 260.01 225.55 208.299C258.705 220.86 283.764 239.505 302.477 261.095C328.057 290.533 341.201 325.164 341.925 364.979C342.607 402.808 330.338 440.033 305.126 476.62C286.779 503.16 261.798 527.479 230.528 545.1ZM337.01 463.93L369.494 432.626L454.225 509.735C468.378 502.601 475.658 485.521 476.12 458.492C476.583 430.982 469.694 409.048 455.496 392.694C443.776 378.959 429.485 371.933 409.5 371.563C404.579 371.473 403.684 371.396 395.864 371.563L395.612 355.575C404.684 355.165 409.443 354.843 413.671 353.815C420.085 352.65 425.16 349.737 430.735 346.617C455.292 333.067 467.869 307.396 468.516 269.586C468.748 255.273 464.448 248.034 455.66 247.868C452.674 247.809 449.217 248.955 445.306 251.294C441.388 253.641 434.81 258.434 425.593 265.652L381.591 300.088L355.261 267.747L421.49 215.859L520.706 266.437C520.937 271.268 521.006 274.89 520.984 277.305C520.544 303.533 512.131 325.103 495.744 342.017C486.775 351.195 474.641 358.687 459.319 364.519C478.918 370.037 494.75 378.693 506.792 390.5C513.841 397.389 519.366 405.693 523.41 415.427C527.547 425.162 529.558 434.847 529.42 444.501C529.143 459.784 524.22 473.695 514.604 486.225C505.15 498.777 491.467 509.382 473.555 518.057C461.675 523.957 442.62 530.55 414.586 538.407L337.01 463.93ZM230.898 537.275C206.002 527.092 183.67 511.8 163.918 491.395C137.635 464.179 124.124 429.989 123.411 388.812C122.265 322.711 156.223 264.601 225.293 214.474C256.158 226.643 280.302 243.195 297.725 264.131C321.532 292.667 333.77 326.233 334.444 364.836C335.08 401.51 323.658 437.589 300.189 473.073C283.106 498.801 260.01 520.205 230.898 537.275ZM264.095 491.041C286.506 466.838 297.415 437.207 296.809 402.136C296.433 380.428 292.09 360.314 283.8 341.796C275.487 323.121 263.864 307.234 248.935 294.135C230.031 277.904 208.718 266.927 184.999 261.234C175.388 275.244 167.981 290.65 162.81 307.468C157.619 324.138 155.162 340.592 155.453 356.832C156.098 394.32 170.745 426.632 199.378 453.808C215.759 469.128 237.332 481.544 264.095 491.041ZM262.812 482.588C283.113 459.588 290.944 433.957 290.393 400.627C290.056 379.996 284.481 362.581 276.969 344.982C269.448 327.228 258.123 314.138 244.59 301.694C227.468 286.257 209.026 274.782 187.54 269.362C178.832 282.677 173.711 294.68 169.009 310.654C164.311 326.493 162.096 342.137 162.355 357.574C162.942 393.193 179.027 423.157 204.962 448.984C219.791 463.54 238.562 473.559 262.812 482.588ZM223.164 302.685C224.675 366.606 227.188 405.63 234.912 453.153C241.469 457.224 254.5 463.122 261.936 466.215C275.285 444.163 277.69 423.248 277.21 401.197C276.796 382.269 272.915 372.886 266.432 356.745C259.941 340.477 252.517 329.118 240.855 317.712C236.414 313.455 227.844 306.226 223.164 302.685ZM369.441 407.142L433.744 461.279C437.759 436.997 437.953 435.393 440.572 406.956C433.282 399.932 427.735 393.895 412.183 390.98C404.458 389.523 391.611 387.821 379.525 388.279V341.099C395.531 340.138 408.07 336.873 414.165 334.572C424.374 330.954 431.327 324.408 436.951 317.503C440.937 312.61 445.667 301.674 445.745 302.054C446.591 282.919 446.311 296.536 446.398 275.749C442.431 278.312 437.656 282.557 428.592 289.493L381.508 326.737L372.233 315.996C371.54 357.241 370.809 372.54 369.441 407.142ZM295.802 231.895C295.638 212.399 295.319 216.155 295.319 195.327C295.252 194.966 296.1 136.964 296.167 133.773C267.96 134.175 237.545 135.447 220.973 136.63C220.903 139.809 220.72 183.137 220.799 183.499C220.72 185.593 220.24 190.847 220.163 192.92C259.599 202.791 277.05 213.258 295.802 231.895ZM447.062 205.003C446.888 198.84 447.121 196.482 446.88 190.193C446.956 189.831 447.321 139.849 447.254 136.67C430.68 135.478 400.267 134.215 372.059 133.813C372.126 137.004 372.975 195.006 372.896 195.367C372.896 215.08 373.185 209.522 373.042 228.042L419.518 191.826L447.062 205.003ZM640.155 130.689C640.086 130.679 526.438 110.917 334.637 108.775C142.845 110.917 28.3763 130.787 28.3001 130.796V126.14C28.3763 126.128 142.672 106.301 334.473 104.157C526.253 106.301 640.086 125.914 640.155 125.924V130.689ZM42.272 114.87L70.0358 111.632C84.8953 110.341 90.4518 101.948 90.1744 90.718C90.0103 84.0149 86.1873 77.0793 77.1617 77.0511L77.1523 76.875C84.6849 74.762 87.6989 68.3241 87.5348 61.4379C87.2944 51.7435 81.1879 45.8339 68.4478 46.9492L41.752 50.2644L42.272 114.87ZM600.91 87.06L607.38 88.2433C607.335 99.6 605.138 101.694 601.372 101.401C595.87 100.981 595.27 96.2051 595.2 78.6665C595.131 61.1162 595.685 56.4392 601.58 56.8901C603.682 57.0543 605.047 58.1603 605.717 60.0385C606.41 61.8088 606.71 64.382 606.734 67.6502L624.137 69.6742C624.092 53.9552 614.939 46.4796 602.204 45.4911C580.986 43.8477 576.594 55.5001 576.686 77.2272C576.779 98.6702 578.466 111.076 596.68 112.495C602.758 112.964 609.138 112.006 611.518 106.644L611.703 106.665L612.119 112.417L624.277 113.356L624.137 78.4787L600.91 75.4968V87.06ZM100.132 108.997L118.345 107.371L121.532 95.4561L134.552 93.8619L136.392 105.953L157.242 104.3L138.943 40.9574L117.256 42.6502L100.132 108.997ZM517.517 104.408L535.753 105.993L535.637 79.5423L540.398 79.9812C544.744 80.3734 546.315 82.4183 546.315 89.7249L546.339 94.0591C546.339 96.7685 546.362 102.903 548.095 106.493L567.28 108.245V107.334C566.1 106.688 565.731 105.935 565.245 105.171C564.367 103.821 564.344 99.4873 564.344 96.1534L564.321 90.6453C564.321 82.0755 561.685 76.6849 552.949 75.1681V74.9921C561.201 74.5624 564.759 69.2985 564.737 60.7194C564.713 50.7902 559.467 43.1011 545.714 41.8473L517.517 39.2647V104.408ZM169.175 103.739L195.601 101.92C210.174 100.922 215.856 92.655 215.913 81.4346C215.941 74.7244 212.397 67.7277 203.566 67.5235V67.3474C211.002 65.3799 214.131 59.0125 214.17 52.1356C214.208 42.4506 208.41 36.4237 195.911 37.2759L169.495 39.0955L169.175 103.739ZM460.195 100.776L502.054 103.408L501.823 88.5275L477.715 86.2783L477.577 73.6279L499.118 75.3114V62.2901L477.507 60.4024V50.1211L500.227 51.5088V38.4006L460.288 35.9072L460.195 100.776ZM59.4614 84.2497L65.2306 84.0829C68.4849 83.7988 71.4411 86.4497 71.5683 91.4388C71.6931 96.6934 68.88 99.5695 65.6257 99.8536L59.4129 100.372L59.4614 84.2497ZM231.959 99.6047L273.659 97.5504L273.62 83.7473L249.881 84.9212L249.841 72.0174L271.279 70.9608L271.241 57.7071L249.814 58.7636L249.783 47.6794L272.656 46.5547L272.541 32.5849L231.794 34.1885L231.959 99.6047ZM399.269 98.7641L425.706 99.2925C440.218 100.016 445.775 92.5024 445.677 81.4088C445.629 74.7878 442.019 67.4507 433.217 66.2064L433.205 66.0208C440.593 64.9644 443.628 59.0359 443.579 52.2272C443.503 42.6596 437.646 36.0081 425.204 35.3812L398.895 34.0711L399.269 98.7641ZM383.563 52.0698C383.667 38.4828 377.63 33.071 362.193 32.6413C347.226 32.2117 339.831 39.0204 339.733 51.8163C339.56 74.2759 367.442 68.8477 367.345 81.3783C367.314 84.832 365.198 87.4452 361.575 87.3371C358.147 87.2385 355.778 85.2146 355.816 79.8052L355.836 78.2885L338.675 77.8094L338.654 80.0188C338.559 93.1669 346.716 98.1068 361.393 98.5294C377.022 98.9685 385.556 93.1763 385.653 79.6666C385.835 56.4909 356.819 61.7947 356.914 49.2712C356.934 46.435 358.668 43.735 362.481 43.8335C365.909 43.9416 367.509 47.0901 367.478 50.8184L367.469 52.3351L383.563 52.0698ZM289.966 97.7992L329.295 96.6746L329.536 83.3411L307.27 83.9093L306.221 32.4019L288.731 32.7446L289.966 97.7992ZM186.799 74.6493L191.693 74.3065C194.889 74.0905 197.876 76.6942 197.857 81.6717C197.827 86.9263 194.812 89.8423 191.616 90.0653L186.724 90.3987L186.799 74.6493ZM416.46 71.0852L421.324 71.3294C424.511 71.4867 427.525 74.4121 427.573 79.3309C427.612 84.5267 424.635 87.06 421.448 86.9028L416.585 86.6586L416.46 71.0852ZM132.708 80.3664L122.748 81.6764L128.277 54.0021L128.48 53.9811L132.708 80.3664ZM59.6417 59.8788L63.9547 59.4962C67.595 59.1839 69.6844 62.0905 69.7722 65.718C69.8578 69.1529 67.9232 72.4094 64.2828 72.7334L59.9676 73.1044L59.6417 59.8788ZM535.429 54.3309L538.919 54.6549C544.351 55.1432 546.57 57.5991 546.593 62.8419C546.593 67.4413 544.189 70.2869 539.058 69.8174L535.475 69.4957L535.429 54.3309ZM186.922 50.0225L191.149 49.729C194.723 49.4849 196.687 52.429 196.667 56.0494C196.648 59.4938 194.665 62.701 191.082 62.9475L186.853 63.241L186.922 50.0225ZM416.266 46.7426L420.475 46.9586C424.039 47.1347 426.022 50.2761 426.052 53.8566C426.08 57.2493 424.145 60.1958 420.581 60.0198L416.373 59.8131L416.266 46.7426Z" fill="#002D5C"/>
</svg>
